<svg xmlns="http://www.w3.org/2000/svg" width="64" height="64" fill="none" viewBox="0 0 64 64">
  <rect width="64" height="64" fill="#323232" rx="6"/>
  <path fill="#C9C9C9" d="M6.6 35v-9.44H3.64v-2.24h8.32v2.24H9V35H6.6Zm6.41 0 3.04-4.56-2.832-4.24h2.672l1.088 1.76c.085.139.165.293.24.464.074.17.133.31.176.416.042-.107.101-.245.176-.416.085-.17.165-.325.24-.464l1.088-1.76h2.672l-2.816 4.24L21.778 35h-2.672l-1.28-2.08c-.086-.15-.17-.304-.256-.464-.075-.17-.134-.31-.176-.416-.043.107-.102.245-.176.416a6.35 6.35 0 0 1-.24.464L15.682 35H13.01Zm10.458 0V23.32h7.2v2.048H25.82v2.624h4.288v2.048H25.82v2.912h4.848V35h-7.2Zm12.201.16c-.885 0-1.594-.31-2.128-.928-.533-.619-.8-1.456-.8-2.512v-2.24c0-1.045.267-1.877.8-2.496.534-.63 1.243-.944 2.128-.944.726 0 1.296.213 1.712.64.416.416.624 1.003.624 1.76l-.56-.56h.56l-.08-2.16v-2.4h2.4V35h-2.32v-1.68h-.56l.56-.56c0 .757-.208 1.35-.624 1.776-.416.416-.986.624-1.712.624Zm.864-2.08c.438 0 .779-.123 1.024-.368.246-.256.368-.613.368-1.072v-2.08c0-.459-.122-.81-.368-1.056-.245-.256-.586-.384-1.024-.384-.448 0-.794.128-1.04.384-.234.245-.352.597-.352 1.056v2.08c0 .459.118.816.352 1.072.246.245.592.368 1.04.368ZM42.495 35v-2.176h3.04V28.36h-2.64V26.2h4.88v6.624h2.56V35h-7.84Zm4-10.192c-.437 0-.79-.112-1.056-.336-.256-.224-.384-.528-.384-.912s.128-.688.384-.912c.267-.224.619-.336 1.056-.336.437 0 .784.112 1.04.336.267.224.4.528.4.912s-.133.688-.4.912c-.256.224-.603.336-1.04.336ZM56.729 35c-.896 0-1.6-.256-2.112-.768s-.768-1.216-.768-2.112v-3.76h-2.32V26.2h2.32v-2.48h2.4v2.48h3.28v2.16h-3.28v3.76c0 .48.24.72.72.72h2.4V35h-2.64Z"/>
  <rect width="13" height="3" x="4" y="41" fill="#00FFD1" rx="1"/>
  <rect width="22" height="3" x="20" y="41" fill="#FFCD00" rx="1"/>
  <rect width="15" height="3" x="45" y="41" fill="#FF6060" rx="1"/>
</svg>
